<svg width="256" height="256" viewBox="0 0 256 256" fill="none" xmlns="http://www.w3.org/2000/svg">
<g clip-path="url(#clip0_1_2)">
<rect width="256" height="256" fill="white"/>
<rect width="256" height="256" fill="#5DBAFD"/>
<path d="M86.5 54L-17 207V266H262V196L156.5 82.5L133.5 113.5L86.5 54Z" fill="#39A844"/>
<path fill-rule="evenodd" clip-rule="evenodd" d="M256 0H0V256H256V0ZM235 33H36V202H235V33Z" fill="black" fill-opacity="0.35"/>
<circle cx="187" cy="230" r="10" fill="#101010"/>
<path fill-rule="evenodd" clip-rule="evenodd" d="M187 240V220C192.523 220 197 224.477 197 230C197 235.523 192.523 240 187 240Z" fill="white"/>
<circle cx="231.5" cy="230.5" r="7.5" fill="white"/>
<circle cx="231" cy="219" r="2" fill="white"/>
<circle cx="243" cy="230" r="2" fill="white"/>
<circle cx="220" cy="231" r="2" fill="white"/>
<circle cx="232" cy="242" r="2" fill="white"/>
<circle cx="239.278" cy="222.015" r="2" transform="rotate(45 239.278 222.015)" fill="white"/>
<circle cx="239.985" cy="238.278" r="2" transform="rotate(45 239.985 238.278)" fill="white"/>
<circle cx="223.015" cy="222.722" r="2" transform="rotate(45 223.015 222.722)" fill="white"/>
<circle cx="223.722" cy="238.985" r="2" transform="rotate(45 223.722 238.985)" fill="white"/>
<path d="M48.14 146L55.246 120.73L64.442 121.3L69.382 146L65.962 146.57L63.34 140.262L53.232 141.098L51.94 146.57L48.14 146ZM56.918 125.518L53.916 138.172L62.504 138.248L57.222 125.518H56.918Z" fill="white"/>
<path d="M88.1035 126.126C88.5849 126.126 89.0535 126.202 89.5095 126.354C90.4975 127.57 91.2955 129.774 91.9035 132.966H92.2075C93.1195 130.838 94.1709 129.166 95.3615 127.95C96.5775 126.734 97.8315 126.126 99.1235 126.126C99.6049 126.126 100.074 126.202 100.53 126.354C101.822 127.925 102.708 130.673 103.19 134.6C103.671 138.527 103.912 142.403 103.912 146.228L97.0715 146.57C97.0715 140.591 96.8815 135.284 96.5015 130.648C93.4615 131.864 91.4475 137.057 90.4595 146.228L86.0515 146.57C86.0515 140.591 85.8615 135.284 85.4815 130.648C84.3415 131.104 83.2269 132.32 82.1375 134.296C81.0735 136.247 80.2882 139.299 79.7815 143.454L79.4395 146.228L75.6775 146.57L73.7395 127.722L81.8715 126.468L81.1495 132.396H81.4155C83.3662 128.216 85.5955 126.126 88.1035 126.126Z" fill="white"/>
<path d="M115.604 125.518C121.734 127.975 124.8 131.028 124.8 134.676C124.8 136.576 124.255 137.957 123.166 138.818C122.102 139.654 120.113 140.072 117.2 140.072C115.35 140.072 113.83 139.933 112.64 139.654C112.158 140.845 111.918 142.086 111.918 143.378C113.058 143.53 114.35 143.606 115.794 143.606C118.428 143.606 120.911 143.188 123.242 142.352L124.382 146.038C122.532 146.621 120.455 146.912 118.15 146.912C114.046 146.912 111.031 146.165 109.106 144.67C108.7 142.871 108.498 141.174 108.498 139.578C108.498 136.386 109.194 133.511 110.588 130.952C112.006 128.393 113.678 126.582 115.604 125.518ZM113.4 137.868C113.729 137.893 114.552 137.906 115.87 137.906C117.212 137.906 118.745 137.729 120.468 137.374C120.544 136.893 120.582 136.411 120.582 135.93C120.582 134.41 120.164 132.953 119.328 131.56C116.82 133.232 114.844 135.335 113.4 137.868Z" fill="white"/>
<path d="M139.019 148.204C138.132 150.408 137.207 151.928 136.244 152.764C135.307 153.625 134.053 154.056 132.482 154.056C130.937 154.056 129.455 153.486 128.036 152.346L129.176 150.408C130.012 150.712 130.924 150.864 131.912 150.864C132.926 150.864 133.838 150.535 134.648 149.876C135.459 149.217 135.978 148.217 136.206 146.874L128.34 127.76L136.472 126.506L138.98 141.098H139.285L144.187 126.62L147.265 127.456L139.019 148.204Z" fill="white"/>
<path d="M153.55 146.874C153.119 146.874 152.803 146.861 152.6 146.836C151.739 146.253 151.042 145.392 150.51 144.252C150.003 143.087 149.75 141.883 149.75 140.642C149.75 139.021 150.358 137.843 151.574 137.108C152.815 136.373 155.083 136.006 158.376 136.006C159.592 136.006 160.859 136.095 162.176 136.272L162.1 135.436C161.999 134.423 161.517 133.625 160.656 133.042C159.795 132.434 158.693 132.13 157.35 132.13C156.007 132.13 154.665 132.548 153.322 133.384L151.65 127.874C153.829 126.987 156.311 126.544 159.098 126.544C161.885 126.544 164.089 127.177 165.71 128.444C167.331 129.685 168.142 131.636 168.142 134.296C168.142 134.904 168.117 135.385 168.066 135.74L167.002 146.228L163.24 146.57L162.67 141.06H162.366C161.505 142.884 160.314 144.315 158.794 145.354C157.274 146.367 155.526 146.874 153.55 146.874ZM162.328 137.868L160.314 137.83C158.642 137.83 157.274 137.919 156.21 138.096C155.855 138.805 155.678 139.439 155.678 139.996C155.678 140.553 155.754 141.085 155.906 141.592C156.058 142.099 156.223 142.441 156.4 142.618C159.44 142.137 161.416 140.553 162.328 137.868Z" fill="white"/>
<path d="M58.818 176.348C58.362 176.5 57.9947 176.576 57.716 176.576L56.69 186.152L52.89 186.532L50.724 162.06C52.0667 161.629 53.84 161.237 56.044 160.882C58.2733 160.527 60.4013 160.35 62.428 160.35C65.6707 160.35 68.2673 160.958 70.218 162.174C70.674 163.542 70.902 164.796 70.902 165.936C70.902 169.128 69.0653 171.763 65.392 173.84L71.776 185.962L69.116 187.444L58.818 176.348ZM63.568 166.962C63.568 165.163 62.77 163.783 61.174 162.82C60.566 162.82 59.882 162.947 59.122 163.2L57.982 174.144C59.73 173.359 61.098 172.307 62.086 170.99C63.074 169.647 63.568 168.305 63.568 166.962Z" fill="white"/>
<path d="M82.6877 165.518C88.8183 167.975 91.8837 171.028 91.8837 174.676C91.8837 176.576 91.339 177.957 90.2497 178.818C89.1857 179.654 87.197 180.072 84.2837 180.072C82.4343 180.072 80.9143 179.933 79.7237 179.654C79.2423 180.845 79.0017 182.086 79.0017 183.378C80.1417 183.53 81.4337 183.606 82.8777 183.606C85.5123 183.606 87.995 183.188 90.3257 182.352L91.4657 186.038C89.6163 186.621 87.539 186.912 85.2337 186.912C81.1297 186.912 78.115 186.165 76.1897 184.67C75.7843 182.871 75.5817 181.174 75.5817 179.578C75.5817 176.386 76.2783 173.511 77.6717 170.952C79.0903 168.393 80.7623 166.582 82.6877 165.518ZM80.4837 177.868C80.813 177.893 81.6363 177.906 82.9537 177.906C84.2963 177.906 85.829 177.729 87.5517 177.374C87.6277 176.893 87.6657 176.411 87.6657 175.93C87.6657 174.41 87.2477 172.953 86.4117 171.56C83.9037 173.232 81.9277 175.335 80.4837 177.868Z" fill="white"/>
<path d="M99.7185 186.57L98.0845 171.218L94.5885 171.712L94.3605 167.798L97.7045 167.646L97.1345 162.326L106.596 161.072L105.836 167.228L109.598 167.038L109.484 169.584L105.456 170.154L103.48 186.228L99.7185 186.57Z" fill="white"/>
<path d="M127.999 179.008C127.999 181.769 127.391 183.783 126.175 185.05C124.984 186.291 122.768 186.912 119.525 186.912C116.282 186.912 113.749 186.177 111.925 184.708C111.545 182.884 111.355 181.06 111.355 179.236C111.355 177.412 111.608 175.702 112.115 174.106C112.647 172.485 113.306 171.104 114.091 169.964C115.738 167.633 117.207 166.151 118.499 165.518C120.931 166.759 123.072 168.444 124.921 170.572C126.973 172.903 127.999 175.715 127.999 179.008ZM123.591 177.982C123.591 175.575 123.084 173.371 122.071 171.37C119.968 172.485 118.233 174.182 116.865 176.462C115.497 178.742 114.813 181.047 114.813 183.378C115.624 183.53 116.789 183.606 118.309 183.606C119.829 183.606 121.387 183.34 122.983 182.808C123.388 181.263 123.591 179.654 123.591 177.982Z" fill="white"/>
<path d="M143.316 181.554C144.254 180.338 144.9 179.021 145.254 177.602C145.609 176.183 145.786 174.955 145.786 173.916C145.786 172.852 145.634 170.8 145.33 167.76L153.462 166.506L151.03 186.228L147.268 186.57L146.508 179.35H146.242C144.368 184.366 141.378 186.874 137.274 186.874C136.666 186.874 136.16 186.773 135.754 186.57C134.462 184.999 133.576 182.339 133.094 178.59C132.613 174.815 132.372 171.053 132.372 167.304L139.972 166.734C139.516 171.167 139.288 174.486 139.288 176.69C139.288 178.894 139.478 181.263 139.858 183.796C141.252 183.492 142.404 182.745 143.316 181.554Z" fill="white"/>
<path d="M164.765 183.606C167.197 183.606 169.489 183.188 171.643 182.352L172.783 186.038C171.009 186.621 169.147 186.912 167.197 186.912C165.246 186.912 163.523 186.697 162.029 186.266C160.534 185.861 159.394 185.329 158.609 184.67C158.229 182.846 158.039 181.149 158.039 179.578C158.039 176.411 158.748 173.536 160.167 170.952C161.611 168.368 163.27 166.557 165.145 165.518L171.719 169.812C168.527 171.535 166.019 173.587 164.195 175.968C162.371 178.324 161.459 180.794 161.459 183.378C162.523 183.53 163.625 183.606 164.765 183.606Z" fill="white"/>
<path d="M191.439 166.126C191.895 166.126 192.351 166.202 192.807 166.354C194.099 167.925 194.986 170.648 195.467 174.524C195.949 178.375 196.189 182.2 196.189 186L189.349 186.57C189.349 180.743 189.134 175.436 188.703 170.648C185.334 171.889 183.092 177.083 181.977 186.228L178.215 186.57L176.277 160.046L184.409 158.792L183.003 174.448H183.345C184.384 171.889 185.6 169.863 186.993 168.368C188.412 166.873 189.894 166.126 191.439 166.126Z" fill="white"/>
</g>
<defs>
<clipPath id="clip0_1_2">
<rect width="256" height="256" fill="white"/>
</clipPath>
</defs>
</svg>
